# xmcd
#
# Track frame offsets:
#	150
#	18005
#	39297
#	66479
#	88215
#	107894
#	134142
#	151843
#	173083
#	192446
#
# Disc length: 2889 seconds
#
# Revision: 606018847
# Processed by: cddbd v1.5.2PL0 Copyright (c) Steve Scherf et al.
# Submitted via: EZCDAudioConverter 8.0.2.1
#
DISCID=850b470a
DTITLE=Thanh Vân - Mưa Sầu Giăng Mắt Em
DYEAR=1997
DGENRE=World Pop
TTITLE0=Mưa Sầu Giăng Mắt Em
TTITLE1=Đêm nay em thấy cô đơn
TTITLE2=Niệm khúc cuối
TTITLE3=Cuộc đời
TTITLE4=Có một ngày như thế
TTITLE5=Đời bỗng giăng mưa
TTITLE6=Yêu đến muôn đời
TTITLE7=Lời tình buồn
TTITLE8=Giòng sông cạn
TTITLE9=Một mình
EXTD=
EXTT0=
EXTT1=
EXTT2=
EXTT3=
EXTT4=
EXTT5=
EXTT6=
EXTT7=
EXTT8=
EXTT9=
PLAYORDER=
